<svg width="173" height="178" viewBox="0 0 173 178" fill="none" xmlns="http://www.w3.org/2000/svg">
<path d="M169.191 105.907L169.009 105.76L156.829 96.1937C156.058 95.5826 155.442 94.7969 155.033 93.9012C154.624 93.0055 154.433 92.0254 154.475 91.0413V86.5731C154.436 85.5953 154.63 84.6223 155.04 83.734C155.45 82.8456 156.065 82.0675 156.833 81.4633L169.009 71.893L169.191 71.7462C171.069 70.1795 172.329 67.9948 172.746 65.583C173.163 63.1711 172.71 60.6893 171.468 58.5812L154.985 30.0173C154.966 29.9903 154.949 29.9619 154.934 29.9322C153.685 27.8534 151.749 26.2783 149.461 25.4804C147.173 24.6825 144.679 24.7123 142.411 25.5645L142.276 25.6148L127.957 31.3856C127.054 31.7515 126.076 31.8971 125.105 31.8105C124.134 31.7238 123.198 31.4072 122.373 30.887C121.107 30.0881 119.821 29.3331 118.514 28.6219C117.666 28.1617 116.939 27.5084 116.39 26.7148C115.84 25.9213 115.485 25.0096 115.353 24.0532L113.195 8.75085L113.149 8.47256C112.679 6.1024 111.409 3.96638 109.553 2.42347C107.696 0.880555 105.365 0.0247957 102.953 0H69.9473C67.5007 0.00784069 65.1354 0.880174 63.268 2.46332C61.4006 4.04646 60.151 6.23884 59.7393 8.65422L59.7046 8.87068L57.5549 24.204C57.423 25.1576 57.0707 26.0671 56.526 26.8603C55.9813 27.6534 55.2592 28.3083 54.4172 28.7727C53.0973 29.4839 51.8083 30.2376 50.5579 31.0222C49.7345 31.5393 48.8004 31.8535 47.8323 31.9388C46.8642 32.0241 45.8897 31.8782 44.9888 31.5131L30.659 25.7153L30.5239 25.6612C28.2525 24.808 25.7544 24.7794 23.4641 25.5802C21.1738 26.381 19.2363 27.9607 17.9887 30.0443L17.9385 30.1294L1.43201 58.7127C0.187868 60.8228 -0.266224 63.3074 0.150938 65.7221C0.5681 68.1368 1.82931 70.3242 3.70904 71.893L3.89043 72.0399L16.0706 81.6063C16.8419 82.2175 17.4575 83.0031 17.8667 83.8988C18.276 84.7945 18.4672 85.7746 18.4248 86.7587V91.2269C18.4634 92.2047 18.2698 93.1777 17.8599 94.066C17.45 94.9544 16.8354 95.7326 16.0667 96.3367L3.89043 105.907L3.70904 106.054C1.83117 107.621 0.570986 109.805 0.153825 112.217C-0.263335 114.629 0.189732 117.111 1.43201 119.219L17.9154 147.783C17.9343 147.81 17.9511 147.838 17.9655 147.868C19.2145 149.947 21.151 151.522 23.4388 152.32C25.7265 153.117 28.221 153.088 30.4892 152.235L30.6242 152.185L44.9309 146.414C45.8346 146.048 46.8122 145.903 47.7832 145.99C48.7541 146.076 49.6906 146.393 50.5154 146.913C51.7813 147.714 53.0677 148.469 54.3748 149.178C55.2222 149.638 55.9498 150.292 56.4988 151.085C57.0479 151.879 57.403 152.79 57.5356 153.747L59.6814 169.049L59.7277 169.327C60.1982 171.701 61.4715 173.84 63.3331 175.384C65.1947 176.927 67.5307 177.781 69.9473 177.8H102.953C105.399 177.792 107.765 176.92 109.632 175.337C111.499 173.754 112.749 171.561 113.161 169.146L113.195 168.929L115.345 153.596C115.479 152.641 115.834 151.73 116.382 150.937C116.931 150.143 117.656 149.489 118.502 149.027C119.822 148.316 121.111 147.562 122.361 146.778C123.185 146.261 124.119 145.947 125.087 145.861C126.055 145.776 127.03 145.922 127.93 146.287L142.26 152.065L142.395 152.119C144.667 152.974 147.165 153.004 149.456 152.203C151.747 151.402 153.684 149.821 154.931 147.736C154.946 147.707 154.963 147.679 154.981 147.651L171.464 119.091C172.71 116.981 173.166 114.496 172.75 112.08C172.333 109.664 171.072 107.476 169.191 105.907Z" fill="#D7D5DC"/>
<path d="M129.854 120.114C135.913 111.654 139.398 101.605 139.885 91.1901C140.213 83.7127 138.991 76.2485 136.296 69.272C133.601 62.2955 129.492 55.9595 124.231 50.6667C118.97 45.374 112.672 41.2403 105.736 38.5287C98.801 35.817 91.3806 34.5867 83.947 34.9159C73.5926 35.4045 63.6024 38.9087 55.1912 45.0025C46.78 51.0964 40.3103 59.5172 36.5687 69.2411C32.8271 78.965 31.9749 89.5729 34.1157 99.7749C36.2564 109.977 41.298 119.333 48.6273 126.707C55.9565 134.08 65.2577 139.152 75.3997 141.307C85.5418 143.462 96.0877 142.606 105.755 138.843C115.422 135.081 123.795 128.574 129.854 120.114Z" fill="#D7D5DC"/>
<path d="M139.598 91.0462C139.114 101.345 135.648 111.281 129.621 119.646C123.595 128.011 115.267 134.445 105.652 138.165C96.0366 141.886 85.5473 142.732 75.4598 140.602C65.3722 138.471 56.121 133.456 48.8311 126.165C41.5412 118.874 36.5267 109.622 34.3974 99.5344C32.2681 89.4466 33.1157 78.9575 36.8372 69.3425C40.5587 59.7274 46.9937 51.4009 55.3597 45.3753C63.7256 39.3498 73.6619 35.8848 83.9605 35.4016C91.3542 35.0762 98.7347 36.2927 105.633 38.974C112.531 41.6554 118.796 45.7428 124.029 50.9764C129.261 56.2099 133.348 62.4752 136.029 69.3737C138.709 76.272 139.925 83.6526 139.598 91.0462Z" fill="white" stroke="white" stroke-width="0.7"/>
<path d="M44.6818 68.6513C44.6818 68.6513 38.6407 71.5783 37.522 72.479C36.4033 73.3797 36.1795 73.8299 36.1795 73.8299C36.1795 73.8299 33.4946 79.684 32.8234 83.5118C32.1522 87.3395 30.8097 102.425 30.8097 102.425C30.6726 111.432 32.1523 122.014 32.5997 123.815C33.047 125.617 35.2987 130.981 38.6407 134.398C41.5252 135.898 43.0736 135.878 45.8005 135.073C46.6267 133.078 47.1521 131.17 47.5694 129.444M44.6818 68.6513C44.6818 68.6513 44.458 66.1745 44.9055 66.3997C45.1144 66.5048 45.567 66.9043 45.9904 67.3004M44.6818 68.6513C45.2012 74.8932 46.1134 78.157 48.931 83.5118C48.931 83.5118 49.6022 81.0351 50.2734 79.9093C50.9446 78.7835 51.773 78.5583 51.773 78.5583M52.289 116.385C51.1723 118.637 49.1586 123.14 48.4854 125.617C48.1818 126.734 47.9121 128.027 47.5694 129.444M52.289 116.385C52.3878 116.186 52.4918 115.946 52.5996 115.674M52.289 116.385C52.289 116.385 59.2231 117.061 64.593 118.186C65.2461 118.323 65.9225 118.51 66.6067 118.733M51.773 78.5583C51.7239 78.4049 51.6723 78.2547 51.6178 78.108C50.9485 76.3067 46.9192 68.201 46.9192 68.201C46.9192 68.201 46.4739 67.7528 45.9904 67.3004M51.773 78.5583C52.0915 79.5544 52.3052 80.689 52.5478 81.9357M55.6904 90.7169C55.6232 90.2088 55.5349 89.82 55.4214 89.5911C54.5284 87.7898 53.184 84.8627 53.184 84.8627C52.9207 83.8333 52.7264 82.8541 52.5478 81.9357M55.6904 90.7169C55.6904 90.7169 56.9857 88.4653 57.4332 87.5647C57.7534 86.9202 57.8445 82.4705 57.9524 79.9093M55.6904 90.7169C56.0336 93.3126 55.8267 99.0215 55.6169 102.425M58.1044 78.108C58.3282 77.8828 59.2702 78.216 59.8944 79.2338C59.8944 79.2338 59.98 79.5882 60.118 80.1785M58.1044 78.108C58.0408 78.172 57.9953 78.8915 57.9524 79.9093M58.1044 78.108C58.1044 78.108 56.3145 76.5319 56.3145 73.3797C56.3145 72.0938 56.4262 70.6205 56.5584 69.3268M55.6169 102.425C55.5446 103.599 55.472 104.499 55.4214 104.902C55.3113 105.781 54.8285 108.001 54.2332 110.306M55.6169 102.425C55.6169 102.425 56.762 102.876 56.9857 104.452C57.2094 106.028 56.762 107.379 56.9857 109.18C57.2094 110.981 58.6931 111.335 60.1181 110.981C61.9105 109.759 62.9305 108.692 63.8594 107.154M52.5478 81.9357C52.5478 81.9357 53.6296 81.9357 55.1958 81.4854C56.762 81.0351 57.9524 79.9093 57.9524 79.9093M45.9904 67.3004C45.9904 67.3004 48.4835 65.4991 49.3784 63.6978C49.8118 62.8256 50.3505 61.4783 50.791 60.3204M56.9857 65.9494C56.9857 65.9494 56.7504 67.4491 56.5584 69.3268M56.5584 69.3268C56.5584 69.3268 63.9217 80.5848 63.698 81.4854C63.4743 82.386 60.118 80.1785 60.118 80.1785M60.118 80.1785C60.6489 82.4501 61.9542 88.2149 62.1318 90.7169C62.3555 93.8692 62.803 102.425 62.803 102.425C62.803 102.425 64.1455 102.65 64.593 103.326C65.0405 104.001 65.0405 104.902 65.0405 104.902C64.6287 105.768 64.2522 106.503 63.8594 107.154M54.2332 110.306C54.2332 110.306 60.7893 111.657 62.1318 111.882C63.4742 112.107 68.6203 113.683 69.2916 114.133C69.9628 114.584 73.9902 117.511 73.9902 117.511C74.2642 118.211 73.9714 118.296 73.0952 118.186C73.0952 118.186 67.2779 116.196 64.593 115.935C61.908 115.674 52.5996 115.674 52.5996 115.674M54.2332 110.306C53.7167 112.305 53.1155 114.368 52.5996 115.674M63.8594 107.154C63.8594 107.154 68.6203 110.981 69.9628 111.657C70.975 112.166 74.0224 113.464 75.5564 114.346M61.0131 110.531L68.6203 113.683C68.6203 113.683 76.6751 115.674 76.4513 115.034C76.3963 114.877 76.0569 114.633 75.5564 114.346M50.791 60.3204C50.791 60.3204 50.791 56.7178 50.4972 54.2411C50.2033 51.7644 47.8122 49.2876 47.8122 49.2876C46.7766 45.4533 50.4972 44.5592 50.791 43.8838C51.0848 43.2084 48.0807 41.0018 48.2597 41.1819C48.4387 41.362 45.1273 38.7051 47.141 35.3277C49.1547 31.9503 51.6178 31.5 51.6178 31.5C55.9938 31.8038 58.1044 33.9768 58.1044 36.4535C58.1044 38.9303 56.5382 41.6322 56.762 42.0825C56.9857 42.5328 62.1318 42.758 62.5793 42.9831C63.0268 43.2083 66.6066 48.1618 67.0541 49.0624C67.5016 49.9631 67.0541 53.1153 66.3829 53.3404C66.3499 53.3515 66.318 53.3512 66.2869 53.3404M50.791 60.3204C51.325 60.7467 51.6753 60.7301 52.292 60.3204M56.9857 54.2411C56.3145 54.2411 53.6296 51.3141 52.9583 51.5392C52.4046 51.7249 51.5927 56.4989 52.292 60.3204M56.9857 54.2411C56.9857 54.2411 56.5382 57.1682 58.9994 57.8436C61.4606 58.5191 63.0123 55.3669 63.0123 55.3669M56.9857 54.2411C57.3252 54.2411 58.9237 52.9165 60.5656 51.6071M66.2869 53.3404C65.6875 53.1334 65.4329 49.0624 64.3692 49.0624C63.8163 49.0624 62.1702 50.3275 60.5656 51.6071M66.2869 53.3404L64.593 53.5656C64.593 53.5656 63.108 53.9392 63.0123 55.3669M66.2869 53.3404C66.2869 53.3404 68.1729 54.4662 67.9491 56.0424C67.7254 57.6185 66.8304 58.7443 65.7117 58.5191C65.347 58.4457 64.9586 58.3245 64.593 58.132M64.593 58.132C63.8367 57.734 63.1776 57.0314 63.0268 55.8172C63.0068 55.6566 63.0029 55.5067 63.0123 55.3669M64.593 58.132C64.3692 58.4862 63.9217 59.2396 63.9217 59.4198L62.1318 62.7972C62.1318 62.7972 61.0131 65.9494 57.6569 65.9494C54.3008 65.9494 52.9583 62.572 52.9583 62.572C52.6568 61.8997 52.4404 61.1315 52.292 60.3204M63.0123 55.3669C63.1182 53.0269 62.4948 52.2797 60.5656 51.6071M47.5694 129.444C55.172 131.048 59.4508 131.257 67.0541 130.795C69.3047 131.155 70.2086 131.784 71.3053 133.497C72.7182 141.666 76.8096 158.447 77.5701 159.39C77.6547 159.495 77.8102 159.555 78.0175 159.577M78.5877 125.617C78.1086 125.022 77.5515 124.429 76.8988 123.815C76.8988 123.815 71.5475 120.341 66.6067 118.733M78.5877 125.617C80.6573 128.183 81.2692 130.765 81.8212 135.073C81.8212 135.073 83.6111 156.914 83.3874 157.589C83.3004 157.852 82.5008 158.306 81.5173 158.715M78.5877 125.617C78.5877 125.617 83.4189 122.481 86.0723 123.365C88.7256 124.249 113.776 127.396 113.816 125.617C114.376 124.626 114.9 123.419 115.325 122.239M84.9536 114.133C84.9536 114.133 115.83 116.835 116.278 117.511C116.355 117.628 116.38 117.863 116.36 118.186M78.0175 159.577C78.7942 159.66 80.2972 159.222 81.5173 158.715M78.0175 159.577L78.5085 161.417M81.5173 158.715L82.0449 161.417C81.8593 161.58 81.6857 161.719 81.5173 161.835M78.5085 161.417L78.6888 162.092C80.0132 162.43 80.7044 162.396 81.5173 161.835M78.5085 161.417L75.7801 165.92C75.193 167.292 75.5512 167.617 76.2276 168.172L91.4421 172.9C91.4421 172.9 92.7846 171.099 92.1134 169.973C91.4421 168.847 90.9946 168.622 90.9946 168.622L81.5173 161.835M116.36 118.186H121.424M116.36 118.186C116.303 119.075 115.906 120.632 115.325 122.239M121.424 118.186C123.098 119.687 122.892 120.585 121.424 122.239M121.424 118.186L131.045 109.63C132.775 108.536 134.401 109.63 134.401 110.306C134.401 110.981 126.57 125.166 126.57 125.166C125.945 125.539 125.553 125.575 124.78 125.166L121.424 122.239M121.424 122.239H115.325M66.6067 118.733L80.4787 119.762L97.9307 99.0478C97.6926 98.6447 97.4303 98.6896 96.812 99.0478L83.1636 114.584L75.5564 114.346" stroke="#1D1D1F" stroke-width="0.35"/>
<path d="M78.689 162.093L78.5088 161.417L75.7804 165.92C75.1932 167.292 75.5514 167.617 76.2279 168.172L91.4424 172.9C91.4424 172.9 92.7848 171.099 92.1136 169.973C91.4424 168.847 90.9949 168.622 90.9949 168.622L81.5175 161.835C80.7047 162.396 80.0135 162.43 78.689 162.093Z" fill="#C5BCCE"/>
<path d="M121.424 122.24C122.893 120.585 123.098 119.688 121.424 118.187L131.045 109.631C132.775 108.536 134.401 109.631 134.401 110.306C134.401 110.982 126.57 125.167 126.57 125.167C125.945 125.54 125.553 125.575 124.78 125.167L121.424 122.24Z" fill="#C5BCCE"/>
<path d="M78.689 162.093L78.5088 161.417L75.7804 165.92C75.1932 167.292 75.5514 167.617 76.2279 168.172L91.4424 172.9C91.4424 172.9 92.7848 171.099 92.1136 169.973C91.4424 168.847 90.9949 168.622 90.9949 168.622L81.5175 161.835C80.7047 162.396 80.0135 162.43 78.689 162.093Z" stroke="#1D1D1F" stroke-width="0.35"/>
<path d="M121.424 122.24C122.893 120.585 123.098 119.688 121.424 118.187L131.045 109.631C132.775 108.536 134.401 109.631 134.401 110.306C134.401 110.982 126.57 125.167 126.57 125.167C125.945 125.54 125.553 125.575 124.78 125.167L121.424 122.24Z" stroke="#1D1D1F" stroke-width="0.35"/>
<path d="M37.5561 72.4407C38.6805 71.5368 44.7523 68.5996 44.7523 68.5996C45.2743 74.8633 46.1912 78.1385 49.0231 83.5119C49.0231 83.5119 49.6977 81.0266 50.3723 79.8969C51.047 78.7671 51.8795 78.5412 51.8795 78.5412C52.1997 79.5407 52.4145 80.6793 52.6583 81.9304C52.8378 82.8519 53.0331 83.8345 53.2977 84.8676C53.2977 84.8676 54.6489 87.8048 55.5465 89.6124C55.6606 89.8421 55.7493 90.2323 55.8168 90.7422C56.1618 93.3469 55.9538 99.0757 55.743 102.491C55.6703 103.669 55.5973 104.572 55.5465 104.977C55.4358 105.859 54.9505 108.087 54.3522 110.399C53.8331 112.406 53.2289 114.476 52.7103 115.786C52.602 116.06 52.4975 116.3 52.3982 116.5C51.2758 118.759 49.2518 123.278 48.5752 125.764C48.2701 126.884 47.999 128.182 47.6546 129.605C47.2352 131.336 46.7071 133.251 45.8767 135.253C43.1359 136.061 41.5797 136.081 38.6805 134.575C35.3215 131.147 33.0584 125.764 32.6088 123.956C32.1591 122.148 30.672 111.529 30.8098 102.491C30.8098 102.491 32.159 87.353 32.8337 83.5119C33.5083 79.6708 36.2069 73.7963 36.2069 73.7963C36.2069 73.7963 36.4317 73.3445 37.5561 72.4407Z" fill="white"/>
<path d="M51.7236 78.0893C51.7784 78.2365 51.8302 78.3872 51.8795 78.5412M51.8795 78.5412C51.8795 78.5412 51.047 78.7671 50.3723 79.8969C49.6977 81.0266 49.0231 83.5119 49.0231 83.5119C46.1912 78.1385 45.2743 74.8633 44.7523 68.5996C44.7523 68.5996 38.6805 71.5368 37.5561 72.4407C36.4317 73.3445 36.2069 73.7963 36.2069 73.7963C36.2069 73.7963 33.5083 79.6708 32.8337 83.5119C32.159 87.353 30.8098 102.491 30.8098 102.491C30.672 111.529 32.1591 122.148 32.6088 123.956C33.0584 125.764 35.3215 131.147 38.6805 134.575C41.5797 136.081 43.1359 136.061 45.8767 135.253C46.7071 133.251 47.2352 131.336 47.6546 129.605C47.999 128.182 48.2701 126.884 48.5752 125.764C49.2518 123.278 51.2758 118.759 52.3982 116.5C52.4975 116.3 52.602 116.06 52.7103 115.786C53.2289 114.476 53.8331 112.406 54.3522 110.399C54.9505 108.087 55.4358 105.859 55.5465 104.977C55.5973 104.572 55.6703 103.669 55.743 102.491C55.9538 99.0757 56.1618 93.3469 55.8168 90.7422C55.7493 90.2323 55.6606 89.8421 55.5465 89.6124C54.6489 87.8048 53.2977 84.8676 53.2977 84.8676C53.0331 83.8345 52.8378 82.8519 52.6583 81.9304C52.4145 80.6793 52.1997 79.5407 51.8795 78.5412Z" stroke="#1D1D1F" stroke-width="0.35"/>
<path d="M50.2564 54.4488C50.5539 56.9481 50.5539 60.5836 50.5539 60.5836C51.0944 61.0138 51.4491 60.997 52.0733 60.5836C51.3654 56.7272 52.1873 51.9096 52.7479 51.7222C53.4273 51.4951 56.1452 54.4488 56.8247 54.4488C57.1684 54.4488 58.7865 53.1121 60.4486 51.7908C62.0729 50.4995 63.7392 49.2228 64.299 49.2228C65.3757 49.2228 65.6334 53.331 66.2402 53.5399C66.2716 53.5507 66.304 53.5511 66.3374 53.5399C67.0169 53.3127 67.4699 50.1317 67.0169 49.2228C66.5639 48.3139 62.94 43.3152 62.487 43.088C62.034 42.8608 56.8247 42.6336 56.5982 42.1791C56.3717 41.7247 57.9572 38.9981 57.9572 36.4987C57.9572 33.9994 55.8206 31.8066 51.3909 31.5C51.3909 31.5 48.8975 31.9544 46.8591 35.3627C44.8206 38.7709 48.1727 41.4521 47.9915 41.2703C47.8103 41.0885 50.8513 43.3153 50.5539 43.9969C50.2564 44.6785 46.4901 45.5808 47.5385 49.4501C47.5385 49.4501 49.959 51.9495 50.2564 54.4488Z" fill="#7A7289" stroke="#1D1D1F" stroke-width="0.4"/>
<path d="M111.767 37.7998V68.184M111.767 68.184C112.7 68.184 113.867 69.7364 113.867 69.7364M111.767 68.184C110.6 68.4057 109.9 69.7364 109.9 69.7364M109.9 69.7364H113.867M109.9 69.7364C109.9 69.7364 109.2 69.9582 109.2 70.6236C109.2 71.2889 109.9 71.2889 109.9 71.2889M113.867 69.7364C113.867 69.7364 114.567 69.9582 114.567 70.6236C114.567 71.2889 114.1 71.2889 114.1 71.2889M109.9 71.2889L109.433 72.8414C109.433 72.8414 105.933 74.3939 106.167 78.3859C106.4 82.378 111.767 82.5998 111.767 82.5998C111.767 82.5998 117.366 82.5998 117.6 78.3859C117.833 74.1721 114.1 72.8414 114.1 72.8414V71.2889M109.9 71.2889H112.933M114.1 71.2889H112.933M104.766 69.0711L105.933 70.18M103.6 72.6196H104.766M105 74.6156L103.833 75.9463M117.366 70.18C117.553 69.8252 118.222 69.2929 118.533 69.0711M118.533 72.6196H119.7M118.066 74.8374L119.7 75.9463M111.066 71.5107C111.066 71.5107 111.066 75.281 111.066 75.7246C111.066 76.1681 110.6 77.0553 109.666 76.8335C108.733 76.6117 108.966 75.281 108.966 75.281C109.082 74.8687 109.273 74.7076 109.9 74.6156H112.933C113.735 74.5425 114.567 74.8374 114.567 75.5028C114.567 76.1681 114.1 76.8335 113.4 76.8335C112.7 76.8335 112.466 76.6117 112.466 75.7246C112.466 74.8374 112.933 74.3939 112.933 74.3939V71.2889" stroke="#7A7289" stroke-width="0.7"/>
</svg>
